<svg xmlns="http://www.w3.org/2000/svg" width="175.312" height="46.647" viewBox="0 0 175.312 46.647">
  <path id="Path_1" data-name="Path 1" d="M176.778,86.423h2.669l0,7.137h.99V86.423h2.67v-.945h-6.331Zm-3.034,5.325-4.974-6.269h-.849v8.08h.97V87.146l5.078,6.413h.742v-8.08h-.967Zm28.1.1-2.1-6.395h-.742l-2.1,6.394-2.25-6.374h-1.083l2.928,8.135h.759l2.093-6.2,2.09,6.2h.76l2.932-8.134H204.1Zm-13.541-6.507h0a4.069,4.069,0,0,0-4.07,4.08c0,.776.469,4.17,4.05,4.263a4.1,4.1,0,0,0,4.073-4.232A4.036,4.036,0,0,0,188.308,85.346Zm3.04,4.194a3.064,3.064,0,0,1-3.04,3.213,3.1,3.1,0,0,1-3.06-3.232V89.5a3.068,3.068,0,0,1,3.042-3.214,3.1,3.1,0,0,1,3.058,3.238Zm21.546,2.207-4.97-6.269h-.849v8.081h.968V87.147l5.08,6.412h.741V85.478h-.97Zm39.145-6.324-3.766,8.136h1.056l.976-2.144h4.246l.974,2.144h1.088l-3.76-8.136Zm-1.3,5.055,1.694-3.711,1.685,3.711Zm-5.3-1.456h-4.478V85.478h-.992v8.081h.992V89.97h4.478l0,3.589h.99V85.478h-.992ZM138.867,85.479h-2.758V93.56h2.758a4.054,4.054,0,0,0,4.28-3.989A3.976,3.976,0,0,0,138.867,85.479Zm0,7.136H137.1V86.425h1.768a3.059,3.059,0,0,1,3.268,3.056A3.027,3.027,0,0,1,138.867,92.615Zm94.8-7.269h0a4.072,4.072,0,0,0-4.073,4.08c0,.825.472,4.17,4.053,4.263a4.094,4.094,0,0,0,4.07-4.232A4.035,4.035,0,0,0,233.666,85.346ZM236.7,89.54a3.061,3.061,0,0,1-3.038,3.213,3.1,3.1,0,0,1-3.061-3.232V89.5a3.068,3.068,0,0,1,3.041-3.214,3.1,3.1,0,0,1,3.058,3.238Zm-13.329-4.061h-2.758V93.56h2.758a4.054,4.054,0,0,0,4.28-3.989A3.977,3.977,0,0,0,223.375,85.479Zm0,7.136H221.6V86.425h1.77a3.061,3.061,0,0,1,3.269,3.056A3.029,3.029,0,0,1,223.375,92.615ZM162.7,91.853l-2.1-6.395h-.743l-2.1,6.394-2.25-6.373h-1.085l2.932,8.134h.758l2.092-6.2,2.091,6.2h.758l2.932-8.134h-1.039Zm-13.537-6.507h0a4.068,4.068,0,0,0-4.07,4.08c0,.754.469,4.17,4.05,4.263a4.093,4.093,0,0,0,4.07-4.232A4.033,4.033,0,0,0,149.159,85.346ZM152.2,89.54a3.064,3.064,0,0,1-3.04,3.213,3.1,3.1,0,0,1-3.061-3.232V89.5a3.069,3.069,0,0,1,3.043-3.214,3.1,3.1,0,0,1,3.058,3.238ZM117.331,69.356,110.25,47.045h-6.183V77.137h4.2V53.574l7.444,23.563h3.242l7.4-23.547V77.137h4.195V47.045h-6.256Zm43.921-22.311h-4.2V77.137h4.2Zm38.626,17.024V60.2H188.993v3.873ZM202.517,73H187.486V51.1h14.222V47.045H183.284V77.137h19.233Zm51.51-8.927V60.2H243.143v3.873ZM241.635,51.1h14.222V47.045H237.434V77.137h19.229V73H241.635Zm-67.992,9.1H162.76v3.873h10.883Zm5.707-13.151h-4.2V77.137h4.2Zm48.511,16.419a7.755,7.755,0,0,0,2.657-1.758,8.019,8.019,0,0,0,1.96-3.489,9.582,9.582,0,0,0,.351-2.5c0-.144,0-.236-.006-.262a8.925,8.925,0,0,0-1.057-4.442,6.842,6.842,0,0,0-1.806-2.07,8.977,8.977,0,0,0-3.385-1.547,13.146,13.146,0,0,0-3.046-.351h-8.972V77.137h4.2V51.1h4.5a12.357,12.357,0,0,1,1.607.091,5.922,5.922,0,0,1,1.344.322,3.522,3.522,0,0,1,1.708,1.292,4.886,4.886,0,0,1,.738,2.832,5.029,5.029,0,0,1-.609,2.58A3.634,3.634,0,0,1,227,59.351a5.235,5.235,0,0,1-2.026.822,9.855,9.855,0,0,1-1.907.168H222.1l6.843,16.8h4.528ZM150.951,74.2a8.457,8.457,0,0,0,1.654-2.988,10.985,10.985,0,0,0,.5-3.342v-.029a7.453,7.453,0,0,0-.706-3.272,7.032,7.032,0,0,0-1.837-2.33,14.03,14.03,0,0,0-3.882-2.182c-1.4-.559-2.832-1-4.108-1.484h0a10.936,10.936,0,0,1-3.125-1.608,3.324,3.324,0,0,1-.84-1.008,2.8,2.8,0,0,1-.293-1.288,3.687,3.687,0,0,1,.273-1.426,3.123,3.123,0,0,1,.775-1.1,4.472,4.472,0,0,1,3.029-1.046h7.137V47.05h-7.282a8.653,8.653,0,0,0-5.852,2.3,7.6,7.6,0,0,0-2.252,5.554v.042a7.085,7.085,0,0,0,.707,3.2,6.7,6.7,0,0,0,1.836,2.244,14.307,14.307,0,0,0,3.866,2.066c1.388.532,2.81.967,4.072,1.468h0a9.5,9.5,0,0,1,3.089,1.757,3.692,3.692,0,0,1,.85,1.182,3.868,3.868,0,0,1,.309,1.578,4.981,4.981,0,0,1-.323,1.814,4.054,4.054,0,0,1-.933,1.425,4.428,4.428,0,0,1-1.543.973,6.62,6.62,0,0,1-2.2.343H136v4.141h7.535a11.487,11.487,0,0,0,4.418-.805A7.968,7.968,0,0,0,150.951,74.2Zm59.683-27.156h-4.2V77.137h4.2Zm68.735,21.466a8.331,8.331,0,0,0-.621-3.266,6.961,6.961,0,0,0-2.183-2.829,7.331,7.331,0,0,0-1.02-.661c-.069-.037-.136-.07-.194-.1a6.751,6.751,0,0,0,1.68-1.43,7.206,7.206,0,0,0,1.431-2.829,8.461,8.461,0,0,0,.27-2.072c0-.195-.008-.316-.01-.341a9.235,9.235,0,0,0-.99-4.025,7.056,7.056,0,0,0-3.4-3.148,8.788,8.788,0,0,0-3.492-.759h-10.21V77.137H269.4A12.818,12.818,0,0,0,274.9,76.08a7.733,7.733,0,0,0,2.454-1.78,7.623,7.623,0,0,0,1.705-3.136,8.706,8.706,0,0,0,.321-2.3C279.379,68.669,279.371,68.547,279.369,68.511ZM274.6,70.982a3.462,3.462,0,0,1-1.036,1.081,5.359,5.359,0,0,1-2.038.783,10.837,10.837,0,0,1-1.984.15h-4.718V51.1h5.5a7.087,7.087,0,0,1,1.324.124,4.086,4.086,0,0,1,1.049.341,2.968,2.968,0,0,1,1.3,1.232,5.157,5.157,0,0,1,.559,2.569,4.1,4.1,0,0,1-.559,2.182,3.7,3.7,0,0,1-.982,1.056,5.582,5.582,0,0,1-1.957.873,8.33,8.33,0,0,1-1.952.235h-.649v3.278h.649a8.686,8.686,0,0,1,1.758.179,5.789,5.789,0,0,1,2.885,1.426,4.47,4.47,0,0,1,1.022,1.519,6.3,6.3,0,0,1,.432,2.268v.141A4.677,4.677,0,0,1,274.6,70.982Z" transform="translate(-104.067 -47.043)" fill="#efebe7"/>
</svg>
