<svg xmlns="http://www.w3.org/2000/svg" width="22" height="16.051" viewBox="0 0 22 16.051">
  <g id="arrow-right" transform="translate(500.448 -2238.377)">
    <path id="Path_185" data-name="Path 185" d="M13.17,3.377a1.555,1.555,0,0,1,1.061.41l8.217,7.648L14.3,19.019a1.579,1.579,0,0,1-2.121,0,1.328,1.328,0,0,1,0-1.974l6.027-5.61-6.1-5.674a1.328,1.328,0,0,1,0-1.974A1.555,1.555,0,0,1,13.17,3.377Z" transform="translate(-500.896 2235)"/>
    <path id="Rectangle_547" data-name="Rectangle 547" d="M1.5,0H12.585a1.5,1.5,0,0,1,1.5,1.5V3a0,0,0,0,1,0,0H1.5A1.5,1.5,0,0,1,0,1.5v0A1.5,1.5,0,0,1,1.5,0Z" transform="translate(-486.363 2247.903) rotate(180)"/>
  </g>
</svg>
