<svg xmlns="http://www.w3.org/2000/svg" width="22" height="21.316" viewBox="0 0 22 21.316">
  <path id="bed" d="M-5,17.086l-2.218-7.051a.483.483,0,0,0-.115-.182.483.483,0,0,0,.08-.254V3.282A1.877,1.877,0,0,0-9.1,1.378H-22.863a1.878,1.878,0,0,0-1.845,1.9V9.6a.487.487,0,0,0,.1.286.478.478,0,0,0-.1.148l-2.256,7.051a.5.5,0,0,0,.033.351.479.479,0,0,0-.026.126v4.632a.5.5,0,0,0,.5.5h2.959a.5.5,0,0,0,.5-.5V20.347h14.03v1.847a.5.5,0,0,0,.5.5H-5.5a.5.5,0,0,0,.5-.5V17.561a.5.5,0,0,0-.026-.128A.5.5,0,0,0-5,17.086ZM-22.863,2.378H-9.1a.877.877,0,0,1,.844.9V9.558c-.251-.045-.522-.088-.809-.128a.389.389,0,0,0,.014-.066V8.112a2.02,2.02,0,0,0-1.985-2.049h-3.363a1.958,1.958,0,0,0-1.585.828,1.958,1.958,0,0,0-1.585-.828h-3.363a2.02,2.02,0,0,0-1.985,2.049V9.364a.524.524,0,0,0,.024.119c-.278.036-.55.075-.819.116V3.282A.877.877,0,0,1-22.863,2.378Zm6.285,6.682c-1.791.027-3.621.125-5.334.307V8.112a1.019,1.019,0,0,1,.984-1.048h3.363a1.019,1.019,0,0,1,.983,1.048v.937Zm6.531.251c-1.527-.161-3.377-.252-5.332-.258V8.112a1.031,1.031,0,0,1,.983-1.048h3.363a1.019,1.019,0,0,1,.984,1.048Zm-13.8,1.318a55.189,55.189,0,0,1,15.761-.018l1.926,6.125H-25.8Zm15.88,11.064V19.846a.5.5,0,0,0-.5-.5h-15.03a.5.5,0,0,0-.5.5v1.847h-1.959V17.737H-6v3.957Z" transform="translate(26.98 -1.378)"/>
</svg>
