<svg xmlns="http://www.w3.org/2000/svg" width="22" height="18.021" viewBox="0 0 22 18.021">
  <g id="briefcase" transform="translate(503.098 -2109.053)">
    <path id="Path_173" data-name="Path 173" d="M20.01,6.011H16V4.58a1.593,1.593,0,0,0-1.591-1.591H9.59A1.592,1.592,0,0,0,8,4.58V6.011H1v4.95a24.418,24.418,0,0,0,7.5,2.3v-1.75h5.31A1.694,1.694,0,0,1,15.5,13.2v.06a24.563,24.563,0,0,0,7.5-2.3V9a2.992,2.992,0,0,0-2.99-2.99M9,4.58a.591.591,0,0,1,.59-.591h4.819A.592.592,0,0,1,15,4.58V5.989H9Z" transform="translate(-504.098 2106.064)"/>
    <path id="Path_174" data-name="Path 174" d="M15.5,14.82a1.694,1.694,0,0,1-1.69,1.69H10.19A1.694,1.694,0,0,1,8.5,14.82v-.55A25.343,25.343,0,0,1,1,12.07v5.95a2.991,2.991,0,0,0,2.99,2.99H20.01A2.991,2.991,0,0,0,23,18.02V12.07a25.633,25.633,0,0,1-7.5,2.2Z" transform="translate(-504.098 2106.064)"/>
    <path id="Path_175" data-name="Path 175" d="M13.81,15.511a.691.691,0,0,0,.69-.69V13.2a.691.691,0,0,0-.69-.69H9.5v2.31a.691.691,0,0,0,.69.69Z" transform="translate(-504.098 2106.064)"/>
  </g>
</svg>
