<svg xmlns="http://www.w3.org/2000/svg" width="22" height="22.412" viewBox="0 0 22 22.412">
  <path id="buth-tub" d="M-33.5,14.385H-52.7a.492.492,0,0,0,.114-.3V4.543a2.172,2.172,0,0,1,2.17-2.17,2.173,2.173,0,0,1,2.17,2.167l-.284.1a2.494,2.494,0,0,0-1.255,3.064l-.285.1a.5.5,0,0,0-.3.642.5.5,0,0,0,.47.33.511.511,0,0,0,.172-.03l6.219-2.264a.5.5,0,0,0,.3-.642.5.5,0,0,0-.642-.3l-.237.085a2.489,2.489,0,0,0-2.93-1.541l-.263.1A3.165,3.165,0,0,0-50.415,1.37a3.176,3.176,0,0,0-3.173,3.173V14.08a.492.492,0,0,0,.113.3H-54.5a.5.5,0,0,0-.5.5.5.5,0,0,0,.5.5h.829c.078,2.915,1.039,5.089,2.665,6.226a.484.484,0,0,0-.165.165l-.727,1.25a.5.5,0,0,0,.183.686.5.5,0,0,0,.252.067.5.5,0,0,0,.433-.25l.727-1.25a.5.5,0,0,0,.061-.236,5.283,5.283,0,0,0,2.2.46h8.074a5.286,5.286,0,0,0,2.2-.46.473.473,0,0,0,.061.236l.726,1.25a.5.5,0,0,0,.434.25.5.5,0,0,0,.252-.067.5.5,0,0,0,.182-.686l-.726-1.25A.5.5,0,0,0-37,21.614c1.626-1.136,2.588-3.311,2.665-6.226h.83a.5.5,0,0,0,.5-.5A.5.5,0,0,0-33.5,14.385ZM-46.673,5.034a1.506,1.506,0,0,1,1.648.941l-3.819,1.39a1.5,1.5,0,0,1,.657-1.779Zm6.707,16.47H-48.04c-3.284,0-4.535-3.091-4.631-6.116h17.335C-35.431,18.413-36.682,21.5-39.966,21.5Z" transform="translate(55.003 -1.37)"/>
</svg>
