<svg xmlns="http://www.w3.org/2000/svg" width="22" height="23.229" viewBox="0 0 22 23.229">
  <path id="city" d="M21.144,12.059H13.857V3.541a2.49,2.49,0,0,0-2.482-2.482H1.638V21.8A2.486,2.486,0,0,0,4.12,24.288H20.485a3.149,3.149,0,0,0,3.153-3.153V14.507A2.5,2.5,0,0,0,21.144,12.059ZM4.69,21.628H3.471V19.191H4.69Zm0-5.154H3.471V14.026H4.69Zm0-5.153H3.471V8.873H4.69Zm0-5.165H3.471V3.709H4.69ZM8.357,21.628H7.138V19.191H8.357Zm0-5.154H7.138V14.026H8.357Zm0-5.153H7.138V8.873H8.357Zm0-5.165H7.138V3.709H8.357Zm3.667,15.471H10.8V19.191h1.219Zm0-5.154H10.8V14.026h1.219Zm0-5.153H10.8V8.873h1.219Zm0-5.165H10.8V3.709h1.219Zm4.214,15.471H15.019V19.18h1.219Zm0-5.154H15.019V14.026h1.219Zm4.471,5.154H19.49V19.18h1.219Zm0-5.154H19.49V14.026h1.219Z" transform="translate(-1.638 -1.059)"/>
</svg>
