<svg xmlns="http://www.w3.org/2000/svg" width="22" height="13.958" viewBox="0 0 22 13.958">
  <g id="envelope" transform="translate(495.733 -2452.015)">
    <path id="Path_192" data-name="Path 192" d="M21.186,5.815l-6.713,4.88a4.224,4.224,0,0,1-4.995,0L1.666,5.015H18.739A4.077,4.077,0,0,1,21.186,5.815Z" transform="translate(-496.609 2447)"/>
    <path id="Path_193" data-name="Path 193" d="M22.876,9.162v5.675a4.132,4.132,0,0,1-4.136,4.136H5.022A4.14,4.14,0,0,1,.876,14.836V5.675L8.889,11.5a5.227,5.227,0,0,0,6.174,0l6.864-5A4.188,4.188,0,0,1,22.876,9.162Z" transform="translate(-496.609 2447)"/>
  </g>
</svg>
