<svg id="instagram" xmlns="http://www.w3.org/2000/svg" width="22.141" height="22.141" viewBox="0 0 22.141 22.141">
  <path id="Path_194" data-name="Path 194" d="M3.243,22.141H18.9A3.247,3.247,0,0,0,22.141,18.9V3.243A3.247,3.247,0,0,0,18.9,0H3.243A3.247,3.247,0,0,0,0,3.243V18.9A3.247,3.247,0,0,0,3.243,22.141ZM1.3,3.243A1.948,1.948,0,0,1,3.243,1.3H18.9a1.948,1.948,0,0,1,1.946,1.946V18.9A1.948,1.948,0,0,1,18.9,20.844H3.243A1.948,1.948,0,0,1,1.3,18.9Zm0,0" transform="translate(0 0)"/>
  <path id="Path_195" data-name="Path 195" d="M126.838,132.676A5.838,5.838,0,1,0,121,126.838,5.845,5.845,0,0,0,126.838,132.676Zm0-10.379a4.541,4.541,0,1,1-4.541,4.541A4.546,4.546,0,0,1,126.838,122.3Zm0,0" transform="translate(-115.767 -115.767)"/>
  <path id="Path_196" data-name="Path 196" d="M362.946,64.892A1.946,1.946,0,1,0,361,62.946,1.948,1.948,0,0,0,362.946,64.892Zm0-2.595a.649.649,0,1,1-.649.649A.649.649,0,0,1,362.946,62.3Zm0,0" transform="translate(-345.389 -58.362)"/>
</svg>
