<svg xmlns="http://www.w3.org/2000/svg" width="22" height="24.061" viewBox="0 0 22 24.061">
  <g id="lock-tickets" transform="translate(504.127 -1868.73)">
    <path id="Path_164" data-name="Path 164" d="M20.193,6.914h-.607V3.873A2.5,2.5,0,0,0,17.314,1.2H6.854V6.914H2.22V21.273a4.01,4.01,0,0,0,4.027,3.988H20.193a4.01,4.01,0,0,0,4.027-3.988V10.913a4.02,4.02,0,0,0-4.027-4M8.012,2.347h9.3c.607,0,1.113.7,1.113,1.526V6.914H8.012ZM7.461,13.854a1.378,1.378,0,0,1-1.383-1.381,1.364,1.364,0,0,1,.776-1.225v.858a1.151,1.151,0,0,0,1.158,1.147V11.2a1.38,1.38,0,0,1-.551,2.651m16.354,1.17-3.183,3.152a.548.548,0,0,1-.394.167.576.576,0,0,1-.4-.167l-4.533-4.5a.512.512,0,0,1-.169-.356l-.225-3.364a.523.523,0,0,1,.169-.434.588.588,0,0,1,.427-.167l3.408.223a.545.545,0,0,1,.36.167l4.544,4.5a.535.535,0,0,1,0,.78" transform="translate(-506.347 1867.53)"/>
    <path id="Path_165" data-name="Path 165" d="M16.187,12.932a1.688,1.688,0,0,1-1.193-.489,1.661,1.661,0,0,1,0-2.363,1.7,1.7,0,0,1,2.387,0,1.661,1.661,0,0,1,0,2.363,1.688,1.688,0,0,1-1.193.489m0-2.228a.564.564,0,0,0-.4.164.554.554,0,0,0,0,.788.568.568,0,0,0,.8,0,.554.554,0,0,0,0-.788.564.564,0,0,0-.4-.164" transform="translate(-504.815 1868.486)"/>
  </g>
</svg>
