<svg xmlns="http://www.w3.org/2000/svg" width="22.032" height="13.786" viewBox="0 0 22.032 13.786">
  <g id="mesure" transform="translate(503.011 -2227.274)">
    <path id="Path_183" data-name="Path 183" d="M22.772,11.316,12,5.056,1.239,11.316a.5.5,0,1,0,.5.865L12,6.212l10.27,5.969A.5.5,0,0,0,22.954,12,.5.5,0,0,0,22.772,11.316Z" transform="translate(-504 2222.218)"/>
    <path id="Path_184" data-name="Path 184" d="M21.2,12.667l-1.751-.608a.5.5,0,1,0-.328.945l.646.224L12,17.69,4.217,13.218l.731-.192a.5.5,0,0,0-.254-.967l-1.9.5a.5.5,0,0,0-.356.61l.47,1.793a.5.5,0,0,0,.483.373.466.466,0,0,0,.127-.016.5.5,0,0,0,.357-.61l-.166-.631L12,18.842l8.149-4.682-.234.674a.5.5,0,0,0,.309.636.5.5,0,0,0,.164.028.5.5,0,0,0,.473-.336L21.5,13.3A.5.5,0,0,0,21.2,12.667Z" transform="translate(-504 2222.218)"/>
  </g>
</svg>
