<svg xmlns="http://www.w3.org/2000/svg" width="22" height="22" viewBox="0 0 22 22">
  <g id="perbyte" transform="translate(502.889 -2082.892)">
    <path id="Path_176" data-name="Path 176" d="M9.732,12.456H5.723A2.731,2.731,0,0,1,3,9.732V3H9.732a2.731,2.731,0,0,1,2.724,2.724V9.732a2.731,2.731,0,0,1-2.724,2.724" transform="translate(-505.889 2079.892)"/>
    <path id="Path_177" data-name="Path 177" d="M38.519,12.456h0a4.728,4.728,0,1,1,4.728-4.728,4.727,4.727,0,0,1-4.728,4.728" transform="translate(-524.136 2079.892)"/>
    <path id="Path_178" data-name="Path 178" d="M9.732,43.247H5.723A2.731,2.731,0,0,1,3,40.523V33.791H9.732a2.731,2.731,0,0,1,2.724,2.724v4.008a2.732,2.732,0,0,1-2.724,2.724" transform="translate(-505.889 2061.645)"/>
    <path id="Path_179" data-name="Path 179" d="M40.523,43.247H36.514a2.731,2.731,0,0,1-2.723-2.724V33.791h6.732a2.731,2.731,0,0,1,2.724,2.724v4.008a2.732,2.732,0,0,1-2.724,2.724" transform="translate(-524.136 2061.645)"/>
  </g>
</svg>
