<svg xmlns="http://www.w3.org/2000/svg" width="21.874" height="21.874" viewBox="0 0 21.874 21.874">
  <g id="printer" transform="translate(500.615 -2376.995)">
    <path id="Path_189" data-name="Path 189" d="M18.073,40.223a1.961,1.961,0,0,0-1.961-1.946H5.857v3.295H18.073Z" transform="translate(-501.643 2338.718)"/>
    <path id="Path_190" data-name="Path 190" d="M19.635,43.019H1V52.11a3.234,3.234,0,0,0,3.224,3.238h.028V50.973H15.715a3.9,3.9,0,0,1,3.892,3.893v.482h.029a3.237,3.237,0,0,0,3.238-3.238V46.258A3.238,3.238,0,0,0,19.635,43.019Zm1.136,2.869a.606.606,0,0,1-.611.61h-.7a.6.6,0,0,1-.6-.61V44.6H20.16a.6.6,0,0,1,.611.6Z" transform="translate(-501.615 2338.691)"/>
    <path id="Path_191" data-name="Path 191" d="M15.742,52.448H5.7V57.76a2.486,2.486,0,0,0,2.486,2.472h7.556a2.474,2.474,0,0,0,2.472-2.472V54.92A2.474,2.474,0,0,0,15.742,52.448Z" transform="translate(-501.642 2338.636)"/>
  </g>
</svg>
