<svg xmlns="http://www.w3.org/2000/svg" width="22" height="12.067" viewBox="0 0 22 12.067">
  <g id="procedures" transform="translate(490.641 -2021.771)">
    <g id="Group_235" data-name="Group 235" transform="translate(-490.641 2021.771)">
      <path id="Path_166" data-name="Path 166" d="M22.581,21.316v-.231a4.1,4.1,0,0,0-4.1-4.1h-7.71v4.268H4V15.693a.5.5,0,0,0-.5-.5H3V26.73a.5.5,0,1,0,1,0V22.255H21.959A2.038,2.038,0,0,1,24,24.293v1.962a1,1,0,0,0,1,1V24.293a3.042,3.042,0,0,0-2.419-2.977" transform="translate(-3 -15.191)"/>
      <path id="Path_167" data-name="Path 167" d="M12.415,20.9a1.614,1.614,0,0,0,1.609-1.61v-.3a1.614,1.614,0,0,0-1.609-1.61H10.5v1.911A1.613,1.613,0,0,0,12.112,20.9Zm-.908-1.609v-.908h.909a.606.606,0,0,1,.605.606v.3a.608.608,0,0,1-.606.606h-.3a.6.6,0,0,1-.605-.605" transform="translate(-7.447 -16.489)"/>
    </g>
  </g>
</svg>
