<svg xmlns="http://www.w3.org/2000/svg" width="22" height="12.492" viewBox="0 0 22 12.492">
  <g id="rotate" transform="translate(-3 -2)">
    <path id="Path_19" data-name="Path 19" d="M6.64,14.037a1.542,1.542,0,0,1-.726-.181,1.817,1.817,0,0,1-.657-.7l-1.041.6a2.5,2.5,0,0,0,1.071,1.06,3.119,3.119,0,0,0,1.363.3A3.069,3.069,0,0,0,7.53,15a2.251,2.251,0,0,0,.746-.375A1.834,1.834,0,0,0,8.792,14a1.9,1.9,0,0,0,.195-.877,1.459,1.459,0,0,0-.283-.955,1.6,1.6,0,0,0-.662-.487,1.217,1.217,0,0,0,.6-.491,1.769,1.769,0,0,0,.233-.979,1.609,1.609,0,0,0-.165-.736,1.657,1.657,0,0,0-.448-.55,2.068,2.068,0,0,0-.652-.346,2.521,2.521,0,0,0-.79-.122,2.972,2.972,0,0,0-1.377.322A2.451,2.451,0,0,0,4.419,9.829l1.042.6a1.742,1.742,0,0,1,.55-.658,1.165,1.165,0,0,1,.638-.19,1.061,1.061,0,0,1,.677.19.621.621,0,0,1,.239.511.806.806,0,0,1-.331.672,1.821,1.821,0,0,1-.975.3v.984a1.963,1.963,0,0,1,1.042.249.767.767,0,0,1,.369.686.75.75,0,0,1-.3.628A1.17,1.17,0,0,1,6.64,14.037Z" transform="translate(2.048 -5.285)"/>
    <path id="Path_20" data-name="Path 20" d="M10.5,14.557a1.856,1.856,0,0,0,.706.433,2.543,2.543,0,0,0,.828.137,2.327,2.327,0,0,0,.945-.18,1.921,1.921,0,0,0,.677-.487,2.115,2.115,0,0,0,.4-.7,2.537,2.537,0,0,0,.136-.833,2.6,2.6,0,0,0-.131-.838,1.984,1.984,0,0,0-.375-.672,1.707,1.707,0,0,0-.594-.443,1.851,1.851,0,0,0-.779-.161,1.606,1.606,0,0,0-.906.254,2.455,2.455,0,0,1,.857-1.028,3.649,3.649,0,0,1,1.354-.59l-.264-.993A4.009,4.009,0,0,0,10.7,10.044a4.351,4.351,0,0,0-.657,1.285,4.506,4.506,0,0,0-.22,1.373,2.943,2.943,0,0,0,.185,1.1A2.144,2.144,0,0,0,10.5,14.557Zm.676-2.118a1.874,1.874,0,0,1,.05-.312,1.533,1.533,0,0,1,.341-.146,1.279,1.279,0,0,1,.447-.079.773.773,0,0,1,.624.3,1.265,1.265,0,0,1,.244.823,1.073,1.073,0,0,1-.23.73.756.756,0,0,1-.6.264.775.775,0,0,1-.326-.073.816.816,0,0,1-.288-.225,1.139,1.139,0,0,1-.2-.384,1.761,1.761,0,0,1-.078-.555C11.157,12.689,11.163,12.575,11.176,12.439Z" transform="translate(2.04 -5.285)"/>
    <path id="Path_21" data-name="Path 21" d="M17.241,15.156A2.071,2.071,0,0,0,18.4,14.85a2.347,2.347,0,0,0,.755-.789,3.6,3.6,0,0,0,.409-1.076,5.537,5.537,0,0,0,0-2.357,3.6,3.6,0,0,0-.409-1.076,2.347,2.347,0,0,0-.755-.789,2.334,2.334,0,0,0-2.313,0,2.355,2.355,0,0,0-.751.789,3.6,3.6,0,0,0-.408,1.076,5.537,5.537,0,0,0,0,2.357,3.6,3.6,0,0,0,.408,1.076,2.4,2.4,0,0,0,.751.794A2.1,2.1,0,0,0,17.241,15.156Zm-1.046-4.232a2.793,2.793,0,0,1,.195-.7,1.244,1.244,0,0,1,.346-.472.819.819,0,0,1,1.014,0,1.266,1.266,0,0,1,.346.472,2.836,2.836,0,0,1,.195.7,6.072,6.072,0,0,1,0,1.743,2.879,2.879,0,0,1-.2.712,1.308,1.308,0,0,1-.346.481.8.8,0,0,1-1,0,1.308,1.308,0,0,1-.346-.477,2.851,2.851,0,0,1-.2-.716,5.977,5.977,0,0,1,0-1.743Z" transform="translate(2.033 -5.285)"/>
    <path id="Path_22" data-name="Path 22" d="M20.422,9.7a1.291,1.291,0,0,0,.428.33,1.387,1.387,0,0,0,.608.125,1.366,1.366,0,0,0,.6-.125,1.273,1.273,0,0,0,.431-.33,1.369,1.369,0,0,0,.259-.462,1.667,1.667,0,0,0,.085-.525,1.635,1.635,0,0,0-.085-.522,1.347,1.347,0,0,0-.259-.457,1.271,1.271,0,0,0-.431-.324,1.561,1.561,0,0,0-1.209,0,1.281,1.281,0,0,0-.431.324,1.347,1.347,0,0,0-.259.457,1.635,1.635,0,0,0-.085.522,1.667,1.667,0,0,0,.085.525A1.369,1.369,0,0,0,20.422,9.7Zm.425-1.311a.793.793,0,0,1,.126-.265.619.619,0,0,1,.766-.176.61.61,0,0,1,.2.176.792.792,0,0,1,.125.265,1.252,1.252,0,0,1,0,.65.815.815,0,0,1-.125.264.581.581,0,0,1-.485.245.6.6,0,0,1-.288-.066.568.568,0,0,1-.2-.179.9.9,0,0,1-.122-.264,1.28,1.28,0,0,1,0-.65Z" transform="translate(2.025 -5.283)"/>
    <path id="Path_23" data-name="Path 23" d="M20.865,12.249a.741.741,0,0,0-1,.418l-.02.056a.743.743,0,0,0,.394.929c.928.435,1.193.826,1.193.994,0,.466-1.571,1.554-5.355,2.074l.107.781a.736.736,0,0,0,.848.627c2.23-.377,5.937-1.33,5.937-3.482C22.969,13.7,22.262,12.9,20.865,12.249Z" transform="translate(2.031 -5.29)"/>
    <path id="Path_24" data-name="Path 24" d="M12.927,16.969c-.324.01-.648.018-.98.018-5.871,0-9.463-1.517-9.463-2.342,0-.126.151-.385.652-.7a.769.769,0,0,0,.291-.971l-.341-.741C1.666,12.886.947,13.7.947,14.646c0,2.665,5.7,3.878,11,3.878.326,0,.644-.009.963-.017L12.9,19.782l2.049-2.049L12.94,15.728Z" transform="translate(2.053 -5.29)"/>
  </g>
</svg>
