<svg id="rss" xmlns="http://www.w3.org/2000/svg" width="22" height="22" viewBox="0 0 22 22">
  <path id="Path_197" data-name="Path 197" d="M3.283,366.566a3.283,3.283,0,0,0,0-6.566,3.283,3.283,0,1,0,0,6.566Zm0,0" transform="translate(0 -344.566)"/>
  <path id="Path_198" data-name="Path 198" d="M10.454,193.694c0,.219-.019.433-.033.648H14.31c.01-.216.033-.429.033-.648A13.772,13.772,0,0,0,.648,180c-.219,0-.432.023-.648.033v3.888c.215-.014.429-.033.648-.033A9.879,9.879,0,0,1,10.454,193.694Zm0,0" transform="translate(0 -172.343)"/>
  <path id="Path_199" data-name="Path 199" d="M.645,0C.427,0,.216.026,0,.033V3.9c.216-.008.427-.033.645-.033A17.569,17.569,0,0,1,18.133,21.355c0,.218-.025.429-.033.645h3.867c.006-.216.033-.427.033-.645A21.417,21.417,0,0,0,.645,0Zm0,0" transform="translate(0 0)"/>
</svg>
