<svg xmlns="http://www.w3.org/2000/svg" width="22" height="20.619" viewBox="0 0 22 20.619">
  <path id="snapchat" d="M21.032,14.755l-.953-.369a4.128,4.128,0,0,1-2.566-3.573h1.911a1.289,1.289,0,1,0,0-2.578H17.492l.056-.612a6.57,6.57,0,1,0-13.094,0l.056.612H2.579a1.289,1.289,0,0,0,0,2.578h1.97l-.115.535a4.1,4.1,0,0,1-2.508,3.037l-.882.345a1.325,1.325,0,0,0-.934.757A1.39,1.39,0,0,0,.243,16.8,4.043,4.043,0,0,0,2.9,18.081C3.151,19.155,3.72,19.63,4.6,19.5c1.921-.3,2.05-.145,2.743.354a11.651,11.651,0,0,0,1.387.843,5.96,5.96,0,0,0,2.253.426A6.335,6.335,0,0,0,13.52,20.6c.153-.088.324-.2.513-.332a3.47,3.47,0,0,1,3.091-.848,1.582,1.582,0,0,0,1.288-.128,1.712,1.712,0,0,0,.678-1.218c1.02-.2,2.374-.5,2.8-1.524a1.348,1.348,0,0,0-.037-1.144,1.267,1.267,0,0,0-.823-.653Zm0,0" transform="translate(-0.001 -0.5)"/>
</svg>
