<svg xmlns="http://www.w3.org/2000/svg" width="108.02" height="108.02" viewBox="0 0 108.02 108.02">
    <g transform="translate(-62.429 -84.56)">
        <path d="M114.554,161.685a25,25,0,1,1,25-25A25.028,25.028,0,0,1,114.554,161.685Z" transform="translate(1.885 1.885)" fill="#d0ad40"/>
        <g transform="translate(113.3 84.56)">
            <path d="M114.554,188.81a3.14,3.14,0,0,1-3.139-3.139V175.138a3.139,3.139,0,1,1,6.278,0v10.533A3.139,3.139,0,0,1,114.554,188.81Z" transform="translate(-111.415 -80.79)" fill="#d0ad40"/>
            <path d="M114.554,101.372a3.139,3.139,0,0,1-3.139-3.139V87.7a3.139,3.139,0,1,1,6.278,0V98.233A3.139,3.139,0,0,1,114.554,101.372Z" transform="translate(-111.415 -84.56)" fill="#d0ad40"/>
        </g>
        <g transform="translate(62.429 135.431)">
            <path d="M76.1,139.824H65.568a3.139,3.139,0,1,1,0-6.278H76.1a3.139,3.139,0,1,1,0,6.278Z" transform="translate(-62.429 -133.546)" fill="#d0ad40"/>
            <path d="M163.54,139.824H153.006a3.139,3.139,0,0,1,0-6.278H163.54a3.139,3.139,0,1,1,0,6.278Z" transform="translate(-58.659 -133.546)" fill="#d0ad40"/>
        </g>
        <g transform="translate(76.777 98.908)">
            <path d="M79.916,174.462A3.139,3.139,0,0,1,77.7,169.1l7.448-7.448a3.139,3.139,0,1,1,4.44,4.438l-7.448,7.449A3.128,3.128,0,0,1,79.916,174.462Z" transform="translate(-76.777 -95.138)" fill="#d0ad40"/>
            <path d="M141.744,112.634a3.139,3.139,0,0,1-2.22-5.358l7.449-7.449a3.139,3.139,0,0,1,4.439,4.439l-7.449,7.449A3.128,3.128,0,0,1,141.744,112.634Z" transform="translate(-73.008 -98.908)" fill="#d0ad40"/>
        </g>
        <g transform="translate(76.777 98.908)">
            <path d="M87.364,112.634a3.129,3.129,0,0,1-2.22-.92L77.7,104.266a3.139,3.139,0,0,1,4.44-4.439l7.448,7.449a3.139,3.139,0,0,1-2.22,5.358Z" transform="translate(-76.777 -98.908)" fill="#d0ad40"/>
            <path d="M149.192,174.462a3.128,3.128,0,0,1-2.219-.919l-7.449-7.449a3.139,3.139,0,0,1,4.439-4.439l7.449,7.449a3.139,3.139,0,0,1-2.22,5.358Z" transform="translate(-73.008 -95.138)" fill="#d0ad40"/>
        </g>
    </g>
</svg>