<svg xmlns="http://www.w3.org/2000/svg" width="22" height="20.44" viewBox="0 0 22 20.44">
  <path id="tel" d="M21.725,15.106,19.67,13.3a3.667,3.667,0,0,0-2.644-.914A3.222,3.222,0,0,0,15,13.278c-.705-.614-1.338-1.191-1.922-1.747-.541-.515-1.1-1.073-1.7-1.692a3.317,3.317,0,0,0,.964-2.132,3.583,3.583,0,0,0-.9-2.626l-1.8-2.058a3.524,3.524,0,0,0-4.925-.45L.989,5.786,3.821,9.017a66.811,66.811,0,0,0,5.732,6.212c.835.8,1.737,1.6,2.747,2.466l4.088,3.592a3.677,3.677,0,0,0,2.408.923c.078,0,.157,0,.236-.008a3.21,3.21,0,0,0,2.23-1.107l.953-1.109A3.5,3.5,0,0,0,21.725,15.106Z" transform="translate(-0.989 -1.77)"/>
</svg>
