<svg id="tickets" xmlns="http://www.w3.org/2000/svg" width="20.932" height="20.18" viewBox="0 0 20.932 20.18">
  <path id="Path_168" data-name="Path 168" d="M1.494,12.447,9.6,5.09l-.039-.018a.458.458,0,0,1-.139-.112.423.423,0,0,1-.079-.148.4.4,0,0,1-.014-.165.407.407,0,0,1,.058-.163l.229-.372.672.344,1.656-1.5V2.951a1.4,1.4,0,0,1-.093-.224,1.418,1.418,0,0,1-.053-.234,1.493,1.493,0,0,1-.013-.241,1.609,1.609,0,0,1,.025-.245l.049-.29L8.75,0,.308,12.636a1.258,1.258,0,0,0-.176.418,1.206,1.206,0,0,0-.015.433,1.243,1.243,0,0,0,.139.413,1.339,1.339,0,0,0,.284.357q.03.027.062.052t.066.049l.07.046.073.042.421.225a1.718,1.718,0,0,1-.257-.555,1.645,1.645,0,0,1,.13-1.165,1.778,1.778,0,0,1,.39-.5M7.747,3.64l.238-.372.411.218a.472.472,0,0,1,.144.112.419.419,0,0,1,.082.147.383.383,0,0,1,.015.163.379.379,0,0,1-.058.158.439.439,0,0,1-.079.095.458.458,0,0,1-.1.068.5.5,0,0,1-.112.041.523.523,0,0,1-.119.014.574.574,0,0,1-.062,0,.588.588,0,0,1-.062-.01.526.526,0,0,1-.06-.017.419.419,0,0,1-.056-.024.481.481,0,0,1-.106-.072.427.427,0,0,1-.076-.09.4.4,0,0,1-.046-.1.394.394,0,0,1-.016-.108.425.425,0,0,1,0-.056A.445.445,0,0,1,7.7,3.746a.413.413,0,0,1,.018-.055.347.347,0,0,1,.026-.051" transform="translate(0 0)"/>
  <path id="Path_169" data-name="Path 169" d="M19.154,6.115,17.582,4.7l-.3.118a1.628,1.628,0,0,1-.177.065,1.83,1.83,0,0,1-.184.045c-.062.012-.124.021-.186.026s-.123.009-.183.009a2.013,2.013,0,0,1-.349-.03,1.947,1.947,0,0,1-.336-.091,1.869,1.869,0,0,1-.314-.15,1.805,1.805,0,0,1-.282-.209,1.669,1.669,0,0,1-.326-.4,1.55,1.55,0,0,1-.177-.46,1.5,1.5,0,0,1-.022-.487,1.54,1.54,0,0,1,.14-.482l.13-.263L12.387,0l-1.5,1.361L9.4,2.712l-.688.625-8.2,7.454a1.316,1.316,0,0,0-.322.444,1.238,1.238,0,0,0-.1.507,1.26,1.26,0,0,0,.112.509,1.371,1.371,0,0,0,.329.449l.933.828L2.1,14.1l.289-.117q.09-.034.181-.059t.184-.042q.092-.017.186-.025t.187-.008a2.011,2.011,0,0,1,.348.03,1.955,1.955,0,0,1,.336.09,1.878,1.878,0,0,1,.313.149,1.809,1.809,0,0,1,.282.207,1.68,1.68,0,0,1,.327.4,1.526,1.526,0,0,1,.178.453,1.466,1.466,0,0,1,.023.48,1.516,1.516,0,0,1-.139.477l-.137.269,1.571,1.4a1.157,1.157,0,0,0,.112.094,1.338,1.338,0,0,0,.123.081c.042.025.086.047.13.067s.089.038.134.054a1.3,1.3,0,0,0,.136.045,1.416,1.416,0,0,0,.139.03c.047.008.094.013.141.017s.094.005.142.005.095,0,.142-.005.094-.009.141-.017a1.407,1.407,0,0,0,.139-.03,1.285,1.285,0,0,0,.136-.045c.045-.016.089-.034.134-.054s.088-.043.13-.067a1.313,1.313,0,0,0,.122-.081,1.132,1.132,0,0,0,.111-.094L19.156,8.031a1.358,1.358,0,0,0,.326-.45,1.25,1.25,0,0,0,0-1.02,1.334,1.334,0,0,0-.327-.446M10.81,4.378a.478.478,0,0,1-.073.054.5.5,0,0,1-.081.04.5.5,0,0,1-.087.024.488.488,0,0,1-.179,0,.525.525,0,0,1-.088-.024.562.562,0,0,1-.084-.04.6.6,0,0,1-.079-.054l-.016-.015-.016-.018a.1.1,0,0,1-.013-.019.048.048,0,0,1-.005-.02.392.392,0,0,1-.07-.132A.375.375,0,0,1,10,4.032a.383.383,0,0,1,.04-.139.417.417,0,0,1,.093-.122l.339-.3.261.235.07.063a.445.445,0,0,1,.107.144.392.392,0,0,1,.036.162.379.379,0,0,1-.035.161.411.411,0,0,1-.106.139m1.966,1.773A.4.4,0,0,1,12.7,6.2a.482.482,0,0,1-.084.037.562.562,0,0,1-.09.021.6.6,0,0,1-.091.007.573.573,0,0,1-.09-.007.519.519,0,0,1-.087-.021.464.464,0,0,1-.081-.037.426.426,0,0,1-.073-.053l-.642-.579a.412.412,0,0,1-.1-.139.4.4,0,0,1-.034-.16.41.41,0,0,1,.033-.162.439.439,0,0,1,.1-.144l.339-.3.973.878a.413.413,0,0,1,.1.139.4.4,0,0,1,.034.16.408.408,0,0,1-.033.162.439.439,0,0,1-.1.144M14.73,7.914a.4.4,0,0,1-.072.058.425.425,0,0,1-.081.039.482.482,0,0,1-.087.022.557.557,0,0,1-.089.007.585.585,0,0,1-.091-.007.527.527,0,0,1-.09-.022.448.448,0,0,1-.084-.039.385.385,0,0,1-.074-.058l-.631-.569a.443.443,0,0,1-.107-.144.391.391,0,0,1-.036-.162.378.378,0,0,1,.035-.16.411.411,0,0,1,.106-.139l.329-.308.972.877a.443.443,0,0,1,.107.144.39.39,0,0,1,.036.162.377.377,0,0,1-.035.16.41.41,0,0,1-.107.139m1.332,1.2a.4.4,0,0,1-.074.053A.481.481,0,0,1,15.9,9.2a.563.563,0,0,1-.09.021.6.6,0,0,1-.091.007.577.577,0,0,1-.089-.007.519.519,0,0,1-.087-.021.462.462,0,0,1-.081-.036.422.422,0,0,1-.073-.053.442.442,0,0,1-.107-.144.39.39,0,0,1-.036-.162.377.377,0,0,1,.035-.16.41.41,0,0,1,.106-.139L15.72,8.2l.34.307a.411.411,0,0,1,.1.139.4.4,0,0,1,.034.16.407.407,0,0,1-.033.162.439.439,0,0,1-.1.144" transform="translate(1.332 1.98)"/>
</svg>
