<svg xmlns="http://www.w3.org/2000/svg" width="21.331" height="21.331" viewBox="0 0 21.331 21.331">
  <g id="utensils" transform="translate(474.815 -2049.984)">
    <path id="Path_180" data-name="Path 180" d="M34.744,26.089H33.072a.049.049,0,0,0-.049.049v2.413a1.811,1.811,0,0,0,1.51,1.814,1.772,1.772,0,0,0,2.031-1.752v-.7a1.82,1.82,0,0,0-1.82-1.82" transform="translate(-495.978 2033.015)"/>
    <path id="Path_181" data-name="Path 181" d="M18.854,3H3.052A.052.052,0,0,0,3,3.052v15.8a5.477,5.477,0,0,0,5.478,5.477h.16v-.019c.125.009.248.019.376.019h9.174c.029,0,.058,0,.087,0v0h.58a5.477,5.477,0,0,0,5.477-5.477V8.478A5.478,5.478,0,0,0,18.854,3m-8.04,20.256a.979.979,0,0,1-.98-.979v-5.7a2.69,2.69,0,0,1-1.884-2.69v-2.75a.98.98,0,0,1,.98.979v1.77a1.8,1.8,0,0,0,.9,1.652V11.155a.979.979,0,0,1,.98.979v3.409a1.8,1.8,0,0,0,.9-1.652v-2.75a.979.979,0,0,1,.98.979v1.77a2.69,2.69,0,0,1-1.883,2.69Zm6.306-5.921v5.921a.979.979,0,0,1-.98-.979V17.35a2.8,2.8,0,0,1-2.26-2.785V11.323c0-.16.022-.181.049-.181h2.651a2.8,2.8,0,0,1,2.8,2.8v.7a2.743,2.743,0,0,1-2.261,2.689m5.17.958a3.992,3.992,0,0,1-3.553,3.975,1.312,1.312,0,0,1,.748-1.341,2.886,2.886,0,0,0,1.695-2.633V9.1a2.944,2.944,0,0,0-2.944-2.944H9.1A2.944,2.944,0,0,0,6.151,9.1v9.2a2.884,2.884,0,0,0,1.356,2.451,1.309,1.309,0,0,1,.56,1.429,3.992,3.992,0,0,1-3.026-3.88V9.1A4.055,4.055,0,0,1,9.1,5.042h9.14A4.054,4.054,0,0,1,22.29,9.1Z" transform="translate(-477.815 2046.984)"/>
  </g>
</svg>
