<svg xmlns="http://www.w3.org/2000/svg" width="22" height="22" viewBox="0 0 22 22">
  <path id="whatsapp" d="M11,0A11.043,11.043,0,0,0,0,11a10.926,10.926,0,0,0,1.557,5.633L0,22l5.367-1.557A10.927,10.927,0,0,0,11,22,11,11,0,1,0,11,0Zm6.877,15.648-.512.512c-.724.724-2.389.667-3.459.46C10.348,15.932,6.2,11.912,5.4,8.43c-.4-1.725-.177-3.224.395-3.8l.512-.512a.725.725,0,0,1,1.024,0L9.378,6.169a.724.724,0,0,1,0,1.023L8.866,7.7a1.45,1.45,0,0,0,0,2.048l3.381,3.336a1.447,1.447,0,0,0,2.048,0l.512-.512a.757.757,0,0,1,1.024,0l2.047,2.047a.723.723,0,0,1,0,1.024Zm0,0"/>
</svg>
